<svg width="194" height="179" viewBox="0 0 194 179" fill="none" xmlns="http://www.w3.org/2000/svg">
<path d="M104.902 0C69.0217 0 38.1148 21.3142 24.006 52.0151H45.1754C47.4593 52.0151 49.3258 53.89 49.3258 56.1842C49.3258 58.4784 47.4593 60.3533 45.1754 60.3533H20.666C19.7328 63.0916 18.9223 65.8915 18.247 68.7408H31.4963C33.7802 68.7408 35.6467 70.6157 35.6467 72.9099C35.6467 75.2042 33.7802 77.079 31.4963 77.079H16.6752C16.2946 79.805 16.0367 82.5556 15.9016 85.3556H41.5039C43.7878 85.3556 45.6543 87.2304 45.6543 89.5247C45.6543 91.8189 43.7878 93.6938 41.5039 93.6938H15.9139C16.0367 96.5061 16.3069 99.2814 16.6875 102.02H25.6145C27.8985 102.02 29.7649 103.895 29.7649 106.189C29.7649 108.483 27.8985 110.358 25.6145 110.358H18.2593C18.9346 113.195 19.7328 115.97 20.666 118.684H31.5577C33.8416 118.684 35.7081 120.559 35.7081 122.853C35.7081 125.147 33.8416 127.022 31.5577 127.022H24.006C38.1271 157.723 69.034 179.037 104.914 179.037C154.117 179.037 194.012 138.962 194.012 89.537C194.012 40.1122 154.117 0 104.902 0Z" fill="#F7F7F7"/>
<path d="M152.349 87.1688C143.667 80.2984 131.449 78.8182 127.778 77.7081C126.317 77.2147 124.966 76.4746 124.966 74.6368C124.966 73.28 125.948 71.9355 129.485 71.9355C134.004 71.9355 144.76 74.0201 156.254 79.7927V50.683C148.186 46.5139 135.477 43.6892 124.708 43.6892C124.266 43.6892 123.836 43.7016 123.407 43.7139C125.58 43.8249 127.336 45.6381 127.336 47.8583C127.336 50.0786 117.5 52.0274 115.229 52.0274C117.512 52.0274 119.379 53.9023 119.379 56.1965C119.379 58.4908 117.512 60.3656 115.229 60.3656C117.512 60.3656 127.336 62.2405 127.336 64.5347C127.336 66.829 125.469 68.7038 123.186 68.7038H106.105C108.389 68.7038 110.255 70.5787 110.255 72.8729C110.255 75.1672 108.389 77.042 106.105 77.042H123.186C125.469 77.042 127.336 78.9169 127.336 81.2111C127.336 83.5054 117.304 85.3802 115.02 85.3802C117.304 85.3802 119.17 87.2551 119.17 89.5493C119.17 91.8436 117.304 93.7185 115.02 93.7185C117.304 93.7185 127.336 95.5933 127.336 97.8876C127.336 100.182 125.469 102.057 123.186 102.057C125.469 102.057 127.336 103.932 127.336 106.226C127.336 108.52 125.469 110.395 123.186 110.395C125.469 110.395 127.336 112.27 127.336 114.564C127.336 116.858 113.006 118.733 110.722 118.733C113.006 118.733 114.872 120.608 114.872 122.902C114.872 125.196 113.006 127.071 110.722 127.071C113.006 127.071 127.336 128.946 127.336 131.24C127.336 133.485 125.543 135.311 123.333 135.385C123.664 135.385 124.008 135.397 124.34 135.397C147.572 135.397 161.263 123.482 161.263 106.411C161.263 98.4303 158.329 92.1643 152.336 87.2551L152.349 87.1688Z" fill="#01C38E"/>
<path d="M123.431 43.7139C123.357 43.7139 123.284 43.6892 123.21 43.6892H79.41C77.126 43.6892 75.2596 45.5641 75.2596 47.8583C75.2596 50.1526 77.126 52.0274 79.41 52.0274H98.2709C104.251 46.9579 112.822 43.9483 123.419 43.7262L123.431 43.7139Z" fill="#01C38E"/>
<path d="M65.9887 43.7139C65.9151 43.7139 65.8414 43.6892 65.7677 43.6892H21.9676C19.6836 43.6892 17.8172 45.5641 17.8172 47.8583C17.8172 50.1526 19.6836 52.0274 21.9676 52.0274H40.8285C46.8085 46.9579 55.3795 43.9483 65.9765 43.7262L65.9887 43.7139Z" fill="#F7F7F7"/>
<path d="M123.21 52.0151C125.494 52.0151 127.36 50.1402 127.36 47.846C127.36 45.5518 125.605 43.8249 123.431 43.7016C112.834 43.9236 104.263 46.9332 98.2832 52.0028H123.21V52.0151Z" fill="#01C38E"/>
<path d="M91.6892 60.3533H88.3738C86.0899 60.3533 84.2234 62.2282 84.2234 64.5224C84.2234 66.8166 86.0899 68.6915 88.3738 68.6915H89.0492C89.5158 65.6942 90.4122 62.9066 91.7015 60.3656L91.6892 60.3533Z" fill="#01C38E"/>
<path d="M89.0369 68.6792H123.21C125.494 68.6792 127.36 66.8043 127.36 64.5101C127.36 62.2158 125.494 60.341 123.21 60.341H91.6892C90.3999 62.8942 89.5035 65.6818 89.0369 68.6668V68.6792Z" fill="#01C38E"/>
<path d="M88.8404 77.005H59.9719C57.688 77.005 55.8215 78.8799 55.8215 81.1741C55.8215 83.4684 57.688 85.3432 59.9719 85.3432H91.198C90.007 82.9503 89.1842 80.1997 88.8404 77.0174V77.005Z" fill="#01C38E"/>
<path d="M36.3343 77.005H7.46579C5.18185 77.005 3.3154 78.8799 3.3154 81.1741C3.3154 83.4684 5.18185 85.3432 7.46579 85.3432H38.6919C37.5009 82.9503 36.6781 80.1997 36.3343 77.0174V77.005Z" fill="#F7F7F7"/>
<path d="M47.9751 60.3533H19.1065C16.8226 60.3533 14.9561 62.2282 14.9561 64.5224C14.9561 66.8166 16.8226 68.6915 19.1065 68.6915H50.3327C49.1416 66.2986 48.3189 63.548 47.9751 60.3656V60.3533Z" fill="#F7F7F7"/>
<path d="M91.198 85.3309H123.21C125.494 85.3309 127.36 83.4561 127.36 81.1618C127.36 78.8676 125.494 76.9927 123.21 76.9927H88.8404C89.1843 80.175 90.007 82.9257 91.198 85.3186V85.3309Z" fill="#01C38E"/>
<path d="M91.2226 97.8505C93.6539 99.4294 96.0852 100.799 98.4551 101.995H119.17C114.025 100.934 105.417 99.0963 98.2586 93.6691H70.1146C67.8306 93.6691 65.9642 95.544 65.9642 97.8382C65.9642 100.132 67.8306 102.007 70.1146 102.007H91.2103V97.8629L91.2226 97.8505Z" fill="#01C38E"/>
<path d="M34.3451 97.8505C36.7764 99.4294 39.2077 100.799 41.5776 101.995H62.2927C57.1477 100.934 48.5399 99.0963 41.3811 93.6691H13.2493C10.9654 93.6691 9.09892 95.544 9.09892 97.8382C9.09892 100.132 10.9654 102.007 13.2493 102.007H34.3451V97.8629V97.8505Z" fill="#F7F7F7"/>
<path d="M119.182 101.995H123.21C125.494 101.995 127.36 100.12 127.36 97.8259C127.36 95.5316 125.494 93.6568 123.21 93.6568H98.2832C105.43 99.084 114.05 100.934 119.195 101.983L119.182 101.995Z" fill="#01C38E"/>
<path d="M91.2226 97.8506V101.995H98.4551C96.0729 100.811 93.6416 99.4417 91.2226 97.8506Z" fill="#01C38E"/>
<path d="M91.2226 110.321H46.0472C43.7633 110.321 41.8968 112.196 41.8968 114.49C41.8968 116.784 43.7633 118.659 46.0472 118.659H91.2226V110.333V110.321Z" fill="#01C38E"/>
<path d="M38.6919 110.321H3.254C1.46123 110.321 0 112.196 0 114.49C0 116.784 1.46123 118.659 3.254 118.659H38.6919V110.333V110.321Z" fill="#F7F7F7"/>
<path d="M91.2226 118.647H123.198C125.482 118.647 127.348 116.772 127.348 114.478C127.348 112.183 125.482 110.309 123.198 110.309H91.2226V118.634V118.647Z" fill="#01C38E"/>
<path d="M91.2226 126.973H68.6288C66.3448 126.973 64.4784 128.847 64.4784 131.142C64.4784 133.436 66.3448 135.311 68.6288 135.311H123.198C123.198 135.311 123.296 135.298 123.345 135.298C112.429 135.138 99.6462 132.474 91.2226 128.07V126.985V126.973Z" fill="#01C38E"/>
<path d="M37.771 126.973H15.1894C12.9055 126.973 11.039 128.847 11.039 131.142C11.039 133.436 12.9055 135.311 15.1894 135.311H69.7585C69.7585 135.311 69.8567 135.298 69.9058 135.298C58.9896 135.138 46.2068 132.474 37.7833 128.07V126.985L37.771 126.973Z" fill="#F7F7F7"/>
<path d="M127.348 131.142C127.348 128.847 125.482 126.973 123.198 126.973H91.2226V128.058C99.6462 132.461 112.429 135.138 123.345 135.286C125.555 135.212 127.348 133.374 127.348 131.142Z" fill="#01C38E"/>
</svg>
